<svg width="18" height="18" viewBox="0 0 18 18" fill="none" xmlns="http://www.w3.org/2000/svg">
<g id="esconder 1" clip-path="url(#clip0_15_94)">
<g id="Group">
<g id="Group_2">
<path id="Vector" d="M9.1225 0C5.605 0 2.5675 2.055 1.135 5.025C0.955 5.4 0.955 5.85 1.135 6.225C2.5675 9.195 5.605 11.25 9.1225 11.25C12.64 11.25 15.6775 9.195 17.11 6.225C17.29 5.85 17.29 5.4 17.11 5.025C15.6775 2.055 12.64 0 9.1225 0ZM9.1225 9C7.2625 9 5.7475 7.485 5.7475 5.625C5.7475 3.765 7.2625 2.25 9.1225 2.25C10.9825 2.25 12.4975 3.765 12.4975 5.625C12.4975 7.485 10.9825 9 9.1225 9Z" fill="#BBB5AA"/>
<path id="Vector_2" d="M9.1225 7.65C10.2409 7.65 11.1475 6.74338 11.1475 5.625C11.1475 4.50662 10.2409 3.6 9.1225 3.6C8.00413 3.6 7.0975 4.50662 7.0975 5.625C7.0975 6.74338 8.00413 7.65 9.1225 7.65Z" fill="#BBB5AA"/>
</g>
</g>
</g>
<defs>
<clipPath id="clip0_15_94">
<rect width="18" height="18" fill="white"/>
</clipPath>
</defs>
</svg>
